<svg 
 xmlns="http://www.w3.org/2000/svg"
 xmlns:xlink="http://www.w3.org/1999/xlink"
 width="8px" height="16px">
<path fill-rule="evenodd"  fill="rgb(255, 255, 255)"
 d="M7.729,0.704 C7.729,1.581 7.729,3.151 7.729,3.151 C7.729,3.151 5.914,2.971 5.460,3.663 C5.211,4.041 5.359,5.147 5.337,5.941 C6.129,5.941 6.952,5.941 7.744,5.941 C7.540,6.870 7.395,7.499 7.245,8.303 C6.559,8.303 5.323,8.303 5.323,8.303 L5.323,15.905 C5.323,15.905 3.055,15.905 1.988,15.905 C1.989,13.562 1.988,10.827 1.988,8.333 C1.470,8.333 1.087,8.333 0.569,8.333 C0.569,7.456 0.569,6.818 0.569,5.941 C1.072,5.941 1.470,5.941 1.973,5.941 C2.045,4.192 2.072,2.460 2.946,1.577 C3.928,0.586 4.866,0.704 7.729,0.704 Z"/>
</svg>