<svg 
 xmlns="http://www.w3.org/2000/svg"
 xmlns:xlink="http://www.w3.org/1999/xlink"
 width="17px" height="16px">
<path fill-rule="evenodd"  fill="rgb(255, 255, 255)"
 d="M14.136,16.012 L2.657,16.012 C1.600,16.012 0.744,15.168 0.744,14.126 L0.744,2.810 C0.744,1.769 1.600,0.925 2.657,0.925 L14.136,0.925 C15.192,0.925 16.049,1.769 16.049,2.810 L16.049,14.126 C16.049,15.168 15.192,16.012 14.136,16.012 ZM8.396,5.545 C7.203,5.545 6.177,6.241 5.707,7.242 L5.704,7.242 C5.699,7.253 5.696,7.264 5.691,7.275 C5.663,7.337 5.638,7.400 5.614,7.464 C5.603,7.495 5.591,7.525 5.580,7.556 C5.558,7.621 5.541,7.688 5.523,7.756 C5.515,7.787 5.506,7.818 5.499,7.850 C5.483,7.921 5.472,7.994 5.462,8.067 C5.458,8.097 5.452,8.125 5.448,8.155 C5.437,8.258 5.431,8.363 5.431,8.468 C5.431,10.083 6.759,11.391 8.396,11.391 C10.034,11.391 11.362,10.083 11.362,8.468 C11.362,8.363 11.355,8.258 11.344,8.155 C11.341,8.125 11.335,8.097 11.331,8.067 C11.320,7.994 11.309,7.921 11.294,7.850 C11.287,7.818 11.277,7.787 11.269,7.756 C11.252,7.688 11.234,7.621 11.212,7.556 C11.202,7.525 11.190,7.495 11.178,7.464 C11.155,7.400 11.130,7.337 11.101,7.275 C11.097,7.264 11.093,7.253 11.088,7.242 L11.086,7.242 C10.615,6.241 9.589,5.545 8.396,5.545 ZM14.327,3.376 C14.327,2.960 13.984,2.622 13.562,2.622 L12.031,2.622 C11.609,2.622 11.266,2.960 11.266,3.376 L11.266,4.885 C11.266,5.302 11.609,5.639 12.031,5.639 L13.562,5.639 C13.984,5.639 14.327,5.302 14.327,4.885 L14.327,3.376 ZM14.327,7.242 L12.916,7.242 C13.025,7.633 13.084,8.044 13.084,8.468 C13.084,11.020 10.985,13.089 8.396,13.089 C5.808,13.089 3.709,11.020 3.709,8.468 C3.709,8.044 3.767,7.633 3.876,7.242 L2.466,7.242 L2.466,13.560 C2.466,13.977 2.808,14.315 3.231,14.315 L13.562,14.315 C13.984,14.315 14.327,13.977 14.327,13.560 L14.327,7.242 Z"/>
</svg>