<svg 
 xmlns="http://www.w3.org/2000/svg"
 xmlns:xlink="http://www.w3.org/1999/xlink"
 width="46px" height="64px">
<path fill-rule="evenodd"  fill="rgb(95, 183, 9)"
 d="M23.000,-0.000 C10.318,-0.000 -0.000,10.397 -0.000,23.176 C-0.000,39.037 20.583,62.321 21.459,63.305 C22.282,64.230 23.719,64.228 24.541,63.305 C25.417,62.321 46.000,39.037 46.000,23.176 C46.000,10.397 35.682,-0.000 23.000,-0.000 ZM23.000,34.838 C16.619,34.838 11.428,29.607 11.428,23.176 C11.428,16.746 16.619,11.516 23.000,11.516 C29.380,11.516 34.571,16.746 34.571,23.177 C34.571,29.607 29.380,34.838 23.000,34.838 Z"/>
</svg>