<svg 
 xmlns="http://www.w3.org/2000/svg"
 xmlns:xlink="http://www.w3.org/1999/xlink"
 width="24px" height="25px">
<path fill-rule="evenodd"  fill="rgb(50, 96, 6)"
 d="M23.860,8.986 L20.401,22.932 C20.191,23.716 19.359,24.352 18.541,24.352 L5.689,24.352 C4.871,24.352 4.035,23.716 3.828,22.932 L0.369,8.986 C0.304,8.724 0.473,8.511 0.746,8.511 L6.051,8.511 L6.051,9.732 C6.051,10.812 6.939,11.689 8.030,11.689 C9.119,11.689 10.006,10.812 10.006,9.732 L10.006,8.511 L14.281,8.511 L14.281,9.732 C14.281,10.812 15.167,11.689 16.257,11.689 C17.348,11.689 18.235,10.812 18.235,9.732 L18.235,8.511 L23.484,8.511 C23.756,8.511 23.923,8.724 23.860,8.986 ZM16.257,10.712 C15.712,10.712 15.268,10.272 15.268,9.732 L15.268,5.916 C15.268,4.207 13.866,2.818 12.142,2.818 C10.419,2.818 9.017,4.207 9.017,5.916 L9.017,9.732 C9.017,10.272 8.573,10.712 8.027,10.712 C7.482,10.712 7.040,10.272 7.040,9.732 L7.040,5.916 C7.040,3.129 9.328,0.861 12.142,0.861 C14.957,0.861 17.247,3.129 17.247,5.916 L17.247,9.732 C17.247,10.272 16.803,10.712 16.257,10.712 Z"/>
</svg>