<svg 
 xmlns="http://www.w3.org/2000/svg"
 xmlns:xlink="http://www.w3.org/1999/xlink"
 width="20px" height="20px">
<path fill-rule="evenodd"  fill="rgb(56, 114, 1)"
 d="M19.451,16.799 C19.790,17.138 20.000,17.607 20.000,18.125 C20.000,19.160 19.160,20.000 18.125,20.000 C17.607,20.000 17.138,19.790 16.799,19.451 L16.799,19.451 L11.304,13.955 C10.187,14.615 8.890,15.000 7.500,15.000 C3.358,15.000 -0.000,11.642 -0.000,7.500 C-0.000,3.358 3.358,-0.000 7.500,-0.000 C11.642,-0.000 15.000,3.358 15.000,7.500 C15.000,8.890 14.615,10.188 13.955,11.304 L19.451,16.799 L19.451,16.799 ZM7.500,1.875 C4.393,1.875 1.875,4.393 1.875,7.500 C1.875,10.606 4.393,13.125 7.500,13.125 C10.606,13.125 13.125,10.606 13.125,7.500 C13.125,4.393 10.606,1.875 7.500,1.875 Z"/>
</svg>