<svg 
 xmlns="http://www.w3.org/2000/svg"
 xmlns:xlink="http://www.w3.org/1999/xlink"
 width="17px" height="13px">
<path fill-rule="evenodd"  fill="rgb(255, 255, 255)"
 d="M11.338,0.429 C12.555,0.407 13.202,0.847 13.820,1.406 C14.345,1.361 15.027,1.070 15.429,0.868 C15.559,0.798 15.689,0.727 15.820,0.656 C15.590,1.271 15.279,1.753 14.801,2.118 C14.695,2.200 14.589,2.309 14.456,2.361 C14.456,2.363 14.456,2.366 14.456,2.368 C15.138,2.361 15.699,2.056 16.233,1.891 C16.233,1.893 16.233,1.896 16.233,1.898 C15.953,2.341 15.573,2.789 15.169,3.111 C15.005,3.239 14.842,3.368 14.678,3.497 C14.687,4.213 14.668,4.896 14.533,5.497 C13.749,8.993 11.671,11.367 8.382,12.384 C7.200,12.749 5.292,12.899 3.939,12.565 C3.268,12.400 2.661,12.214 2.093,11.967 C1.777,11.830 1.484,11.682 1.204,11.513 C1.112,11.457 1.020,11.401 0.928,11.346 C1.233,11.355 1.590,11.438 1.932,11.384 C2.241,11.334 2.543,11.347 2.828,11.285 C3.538,11.131 4.169,10.926 4.712,10.611 C4.976,10.458 5.375,10.278 5.563,10.058 C5.210,10.064 4.890,9.983 4.628,9.891 C3.612,9.535 3.021,8.881 2.636,7.899 C2.944,7.932 3.831,8.012 4.038,7.838 C3.651,7.817 3.278,7.594 3.012,7.429 C2.195,6.922 1.528,6.071 1.533,4.762 C1.641,4.813 1.748,4.863 1.855,4.914 C2.060,5.000 2.269,5.046 2.514,5.095 C2.617,5.117 2.824,5.177 2.943,5.134 C2.938,5.134 2.933,5.134 2.927,5.134 C2.769,4.951 2.512,4.829 2.353,4.633 C1.829,3.987 1.337,2.992 1.648,1.808 C1.727,1.507 1.852,1.242 1.985,0.997 C1.990,0.999 1.995,1.002 2.001,1.005 C2.062,1.131 2.198,1.224 2.284,1.331 C2.552,1.659 2.882,1.955 3.219,2.217 C4.365,3.106 5.398,3.653 7.056,4.057 C7.477,4.160 7.963,4.239 8.466,4.239 C8.325,3.832 8.370,3.172 8.481,2.777 C8.761,1.785 9.368,1.070 10.258,0.686 C10.471,0.595 10.708,0.528 10.955,0.474 C11.083,0.459 11.211,0.444 11.338,0.429 Z"/>
</svg>