<svg 
 xmlns="http://www.w3.org/2000/svg"
 xmlns:xlink="http://www.w3.org/1999/xlink"
 width="24px" height="24px">
<path fill-rule="evenodd"  fill="rgb(255, 255, 255)"
 d="M20.485,3.518 C18.257,1.292 15.307,0.049 12.162,0.008 C12.108,0.003 12.053,-0.001 12.000,-0.001 C11.946,-0.001 11.892,0.003 11.837,0.008 C8.693,0.049 5.743,1.292 3.515,3.518 C1.248,5.783 -0.000,8.795 -0.000,11.999 C-0.000,15.203 1.248,18.215 3.515,20.480 C5.743,22.707 8.693,23.949 11.837,23.990 C11.892,23.996 11.946,23.999 12.000,23.999 C12.053,23.999 12.108,23.996 12.162,23.990 C15.307,23.949 18.257,22.707 20.485,20.480 C22.752,18.215 24.000,15.203 24.000,11.999 C24.000,8.795 22.752,5.783 20.485,3.518 ZM4.523,4.527 C5.798,3.252 7.341,2.344 9.025,1.854 C8.646,2.291 8.277,2.793 7.934,3.349 C7.495,4.060 7.116,4.829 6.799,5.643 L3.552,5.643 C3.847,5.252 4.171,4.879 4.523,4.527 ZM2.643,7.069 L6.318,7.069 C5.936,8.405 5.710,9.830 5.654,11.286 L1.451,11.286 C1.549,9.795 1.957,8.365 2.643,7.069 ZM2.643,16.930 C1.957,15.633 1.549,14.203 1.451,12.712 L5.654,12.712 C5.710,14.169 5.936,15.593 6.318,16.930 L2.643,16.930 ZM4.523,19.471 C4.171,19.119 3.847,18.746 3.552,18.355 L6.799,18.355 C7.116,19.169 7.495,19.939 7.934,20.649 C8.277,21.205 8.646,21.708 9.025,22.144 C7.341,21.654 5.798,20.746 4.523,19.471 ZM11.287,22.280 C10.692,21.891 9.894,21.111 9.148,19.900 C8.848,19.415 8.579,18.898 8.341,18.355 L11.287,18.355 L11.287,22.280 L11.287,22.280 ZM11.287,16.930 L7.807,16.930 C7.390,15.609 7.142,14.181 7.082,12.712 L11.287,12.712 L11.287,16.930 L11.287,16.930 ZM11.287,11.286 L7.082,11.286 C7.142,9.818 7.390,8.390 7.807,7.069 L11.287,7.069 L11.287,11.286 L11.287,11.286 ZM11.287,5.643 L8.341,5.643 C8.579,5.100 8.848,4.583 9.148,4.098 C9.894,2.888 10.692,2.107 11.287,1.718 L11.287,5.643 L11.287,5.643 ZM21.357,7.069 C22.043,8.365 22.450,9.795 22.549,11.286 L18.345,11.286 C18.290,9.830 18.064,8.405 17.681,7.069 L21.357,7.069 ZM19.476,4.527 C19.829,4.879 20.153,5.252 20.448,5.643 L17.201,5.643 C16.884,4.829 16.504,4.060 16.066,3.349 C15.723,2.793 15.354,2.291 14.974,1.854 C16.658,2.344 18.202,3.252 19.476,4.527 ZM12.713,1.718 C13.307,2.107 14.105,2.888 14.852,4.098 C15.152,4.583 15.421,5.100 15.659,5.643 L12.713,5.643 L12.713,1.718 L12.713,1.718 ZM12.713,7.069 L16.193,7.069 C16.610,8.390 16.857,9.818 16.918,11.286 L12.713,11.286 L12.713,7.069 ZM16.918,12.712 C16.857,14.181 16.610,15.609 16.193,16.930 L12.713,16.930 L12.713,12.712 L16.918,12.712 ZM12.713,22.280 L12.713,18.355 L15.658,18.355 C15.421,18.898 15.151,19.415 14.852,19.900 C14.105,21.111 13.307,21.891 12.713,22.280 ZM19.476,19.471 C18.202,20.746 16.658,21.654 14.974,22.145 C15.354,21.708 15.723,21.205 16.066,20.649 C16.504,19.939 16.884,19.169 17.201,18.355 L20.448,18.355 C20.153,18.746 19.829,19.120 19.476,19.471 ZM21.357,16.930 L17.681,16.930 C18.064,15.593 18.290,14.169 18.345,12.712 L22.549,12.712 C22.450,14.203 22.043,15.633 21.357,16.930 Z"/>
</svg>